<?xml version="1.0" standalone="no"?>
<!DOCTYPE svg PUBLIC "-//W3C//DTD SVG 20010904//EN"
 "http://www.w3.org/TR/2001/REC-SVG-20010904/DTD/svg10.dtd">
<svg version="1.0" xmlns="http://www.w3.org/2000/svg"
 width="1024.000000pt" height="1024.000000pt" viewBox="0 0 1024.000000 1024.000000"
 preserveAspectRatio="xMidYMid meet">

<g transform="translate(0.000000,1024.000000) scale(0.100000,-0.100000)"
fill="#000000" stroke="none">
<path d="M5075 7910 c-23 -4 -31 -11 -33 -31 -2 -15 3 -33 11 -40 8 -8 16 -42
19 -77 7 -67 32 -121 65 -138 12 -5 30 -21 41 -34 17 -21 30 -25 91 -28 89 -5
119 2 133 34 6 13 21 27 33 30 36 9 58 60 63 149 3 53 9 83 18 88 22 12 16 36
-8 41 -34 8 -399 13 -433 6z"/>
<path d="M5270 7330 c-30 -6 -111 -12 -180 -15 -316 -12 -571 -120 -790 -335
-327 -320 -454 -758 -396 -1365 7 -77 11 -165 9 -195 -3 -33 1 -80 11 -117 25
-95 26 -474 2 -608 -31 -174 -66 -276 -159 -475 -91 -193 -123 -299 -133 -429
-11 -149 37 -285 138 -396 59 -65 151 -130 172 -122 18 7 22 42 6 52 -36 22
-90 192 -89 280 l0 40 37 -75 c55 -110 96 -166 183 -250 43 -42 85 -89 93
-104 14 -28 13 -31 -22 -72 -24 -28 -50 -47 -74 -54 -57 -16 -84 -81 -57 -133
16 -30 23 -34 102 -58 l68 -20 -49 -38 c-62 -50 -94 -89 -122 -148 -12 -26
-26 -57 -32 -69 -5 -11 -22 -28 -38 -37 -52 -31 -100 -88 -112 -133 -11 -40
-15 -44 -43 -44 -107 -1 -263 -63 -378 -151 -74 -56 -168 -153 -190 -196 -14
-26 -26 -33 -69 -43 -171 -36 -254 -233 -157 -372 11 -14 19 -29 19 -32 0 -3
-67 -6 -150 -6 l-150 0 0 455 0 455 395 0 c435 0 450 2 479 59 12 21 16 59 16
131 0 114 -11 144 -64 176 -30 18 -72 19 -1182 19 l-1150 0 -37 -25 c-52 -35
-59 -61 -55 -190 l3 -112 33 -29 c32 -28 34 -29 147 -29 l115 0 0 -840 0 -840
-129 0 c-104 0 -133 -3 -145 -16 -18 -17 -21 -40 -7 -48 12 -8 8320 -8 8332 0
13 8 11 38 -3 52 -8 8 -45 12 -100 12 l-88 0 0 840 0 840 164 0 c149 0 166 2
189 20 34 27 47 76 47 181 0 159 -23 183 -180 185 -58 1 -111 2 -117 3 -8 1
-13 17 -13 45 0 122 -20 139 -174 146 l-109 5 -44 135 c-25 74 -55 149 -68
166 l-23 30 110 190 c61 104 140 241 175 304 36 63 83 132 105 153 48 46 71
98 62 141 -10 50 -41 92 -81 110 -39 18 -46 26 -273 361 -94 137 -96 141 -92
191 3 43 0 55 -24 83 -27 32 -27 33 -14 101 26 139 -7 227 -103 275 -86 43
-207 28 -260 -33 -11 -11 -51 -96 -91 -188 l-71 -166 -87 -29 c-148 -48 -272
-122 -374 -224 -35 -36 -44 -51 -44 -79 0 -55 7 -59 263 -170 50 -22 57 -28
57 -53 0 -39 32 -87 67 -102 37 -15 104 4 117 35 9 20 15 19 205 -58 213 -85
237 -89 269 -40 14 22 17 48 15 166 -1 77 1 135 6 130 4 -5 21 -29 38 -54 16
-25 66 -98 111 -162 45 -65 82 -125 82 -135 0 -16 -27 -65 -244 -448 -50 -88
-97 -172 -105 -187 -8 -15 -29 -38 -47 -50 -63 -43 -81 -117 -49 -195 15 -34
14 -41 -12 -117 -16 -45 -30 -83 -31 -86 -2 -3 -87 -5 -189 -5 l-185 0 -24
-28 c-20 -23 -24 -39 -24 -93 l0 -64 -40 0 -40 0 -2 48 c-1 26 -1 63 1 82 1
20 -2 47 -7 60 -7 18 -4 33 10 57 16 27 19 44 14 100 -4 38 -6 94 -6 127 1 41
-4 64 -16 77 -15 17 -15 24 0 91 30 139 66 350 66 388 0 30 -6 43 -26 59 -29
23 -54 27 -71 10 -7 -7 -14 12 -22 66 -13 91 -15 95 -44 95 -50 0 -138 -243
-177 -490 -25 -151 -25 -151 -60 155 -14 121 -26 180 -49 243 -42 114 -48 124
-74 120 -26 -4 -45 -63 -46 -145 -1 -28 -5 -54 -10 -57 -4 -3 -19 6 -31 19
-29 31 -63 32 -91 3 -27 -30 -24 -80 26 -336 l37 -193 -26 -28 c-14 -15 -26
-34 -26 -42 0 -9 -10 -24 -21 -35 -50 -44 -62 -124 -29 -188 l19 -39 -23 -28
c-28 -33 -40 -115 -27 -173 6 -22 8 -43 6 -47 -3 -3 -49 -4 -102 -2 -115 6
-171 -6 -216 -47 l-32 -28 2 -118 c1 -98 5 -122 21 -143 35 -48 51 -51 305
-51 l237 0 0 -449 c0 -400 -2 -450 -16 -455 -23 -9 -256 -7 -252 2 43 83 52
112 52 172 0 98 -51 177 -144 225 -16 8 -38 32 -48 51 -48 93 -184 218 -307
281 -54 28 -84 38 -167 57 -22 5 -28 12 -28 32 0 41 -34 96 -94 150 -31 29
-56 60 -56 70 0 31 -56 118 -96 151 -22 17 -50 40 -64 51 l-25 20 40 10 c22 6
58 14 80 18 82 14 115 44 115 105 0 23 -9 40 -35 64 l-35 33 16 39 c9 21 43
62 75 92 82 74 147 168 185 269 l32 86 17 -40 c32 -75 40 -139 26 -201 -18
-84 -18 -88 5 -91 26 -4 50 28 93 118 40 84 55 181 48 315 -9 186 -32 250
-209 585 -138 262 -186 437 -195 715 -4 122 -2 203 7 250 6 39 15 115 20 170
7 93 13 138 41 301 l11 61 40 -14 c53 -18 91 -9 123 29 38 45 30 114 -18 166
l-21 22 22 45 c61 127 -14 214 -140 162 l-36 -15 -7 56 c-15 132 -56 272 -113
385 -32 62 -74 137 -94 167 -61 92 -176 217 -260 284 -144 116 -372 217 -566
252 -106 19 -317 26 -392 14z m345 -75 c271 -44 502 -162 682 -348 177 -183
276 -380 323 -641 28 -155 27 -160 -18 -109 -27 31 -51 45 -92 57 -30 9 -57
15 -59 14 -2 -2 -10 15 -18 37 -19 59 -35 85 -49 85 -14 0 -13 -21 7 -109 8
-35 7 -51 -6 -78 -17 -35 -14 -90 8 -143 17 -42 16 -50 -9 -87 -45 -67 -29
-139 40 -178 18 -10 18 -22 7 -250 -16 -325 -27 -412 -74 -570 -23 -78 -76
-195 -88 -195 -5 0 -16 -14 -24 -31 -25 -47 -28 -29 -10 57 65 310 72 955 15
1334 -29 192 -85 367 -115 357 -13 -5 -8 -49 15 -122 23 -74 47 -219 56 -344
l7 -94 -119 8 c-65 5 -136 9 -157 11 -47 3 -127 26 -127 36 0 4 -6 8 -12 8 -7
1 -26 7 -43 16 -29 13 -27 14 38 9 38 -3 94 -12 125 -20 68 -18 86 -7 48 28
-46 43 -188 58 -249 25 -14 -7 -29 -1 -67 27 -57 42 -149 141 -170 182 -8 15
-24 42 -36 58 -24 32 -89 156 -143 272 -28 60 -55 93 -67 81 -1 -2 2 -26 8
-53 5 -28 10 -60 10 -72 0 -13 4 -20 8 -18 4 3 11 -6 14 -20 4 -14 29 -73 58
-132 28 -60 50 -115 49 -123 -2 -8 1 -12 5 -8 4 5 23 -16 42 -45 56 -83 109
-143 163 -183 27 -20 48 -39 45 -41 -8 -9 -147 37 -210 69 -55 28 -85 46 -140
88 -27 21 -127 120 -151 150 -38 49 -84 133 -78 143 3 6 2 7 -4 4 -21 -13
-101 209 -118 333 -8 56 -10 59 -35 53 -25 -7 -32 -33 -28 -104 l3 -54 -57
-47 c-98 -82 -187 -194 -325 -407 -34 -53 -67 -95 -73 -93 -7 1 -9 -2 -5 -7 3
-6 -7 -33 -22 -62 l-28 -51 -3 41 c-4 50 31 275 60 384 11 43 18 81 14 84 -8
8 -36 -17 -36 -33 0 -8 -4 -14 -8 -14 -9 0 -60 -160 -80 -250 -37 -161 -51
-779 -23 -1060 17 -177 48 -421 57 -446 17 -50 -59 72 -89 142 -38 88 -59 169
-81 319 -43 291 -47 831 -7 1060 12 66 21 121 21 123 0 1 -4 2 -10 2 -31 0
-89 -213 -105 -388 -4 -39 -11 -75 -16 -78 -5 -3 -9 -17 -9 -32 -1 -25 -1 -26
-12 -7 -7 11 -15 38 -20 60 -4 22 -5 -10 -2 -71 4 -89 2 -118 -12 -153 -32
-81 -39 -39 -39 237 0 293 12 381 84 593 54 162 119 270 250 417 181 204 413
323 676 347 l80 8 -19 -22 c-26 -28 -5 -28 61 0 26 11 75 27 108 34 81 18 300
18 410 0z m-695 -767 c53 -146 125 -261 229 -367 148 -150 331 -236 568 -267
65 -8 177 -26 248 -39 72 -13 156 -27 187 -30 49 -5 59 -10 62 -28 19 -92 9
-596 -13 -742 -10 -62 -16 -74 -49 -102 -20 -18 -70 -51 -109 -74 -189 -108
-425 -171 -696 -186 -109 -6 -119 -5 -140 14 -28 26 -61 43 -83 43 -10 0 -27
11 -39 25 -13 17 -34 28 -60 32 -23 3 -54 18 -73 35 -24 20 -43 28 -72 28 -29
0 -40 5 -45 19 -12 37 -46 70 -80 77 -46 8 -98 -24 -122 -76 -10 -22 -22 -40
-28 -40 -16 0 -157 94 -196 131 l-36 34 -12 130 c-7 72 -15 248 -18 392 l-6
262 26 39 c14 22 49 82 78 133 67 122 226 365 297 454 46 58 148 165 157 165
1 0 13 -28 25 -62z m1617 -367 c55 -40 83 -78 83 -113 0 -28 -2 -29 -32 -23
-116 25 -171 83 -138 146 15 27 40 24 87 -10z m287 3 c19 -51 -13 -97 -93
-133 -49 -22 -71 -18 -71 11 0 30 27 70 73 105 46 35 81 42 91 17z m-224 -183
c0 -57 -99 -134 -146 -112 -47 21 -25 82 39 112 56 25 107 25 107 0z m206 -12
c37 -22 53 -62 37 -88 -14 -21 -65 -18 -96 5 -28 22 -67 75 -67 92 0 21 89 14
126 -9z m-150 -44 c17 -41 18 -90 3 -134 -30 -86 -66 34 -38 132 5 20 12 37
15 37 3 0 12 -16 20 -35z m-11 -224 c3 -6 2 -28 -1 -51 -6 -35 -9 -39 -21 -28
-7 8 -16 31 -20 51 -5 33 -3 37 15 37 11 0 23 -4 27 -9z m-2561 -321 l7 -164
-27 24 c-31 30 -58 79 -73 138 -16 57 -1 137 41 222 l32 65 7 -60 c4 -33 9
-134 13 -225z m2466 238 c57 -78 74 -183 44 -271 -16 -46 -96 -148 -108 -136
-3 3 -1 61 4 130 5 68 10 168 10 222 0 57 4 97 10 97 5 0 23 -19 40 -42z
m2238 -297 c57 -29 76 -70 69 -148 -4 -35 -10 -71 -15 -79 -5 -9 -33 -26 -63
-38 -72 -29 -99 -69 -99 -147 0 -56 2 -61 40 -97 35 -35 42 -49 60 -133 13
-55 24 -147 27 -221 5 -123 5 -128 -15 -128 -11 0 -93 30 -183 66 -90 37 -198
79 -239 94 -41 16 -129 51 -195 78 -66 27 -137 55 -157 61 -80 26 -73 52 34
134 91 69 194 121 295 148 43 12 85 25 93 29 8 5 47 86 86 182 60 148 75 176
104 196 41 28 107 29 158 3z m-2188 -486 c28 -193 84 -353 222 -628 49 -98
103 -220 120 -270 28 -82 32 -106 34 -227 3 -112 1 -130 -9 -105 -36 92 -114
231 -138 244 -30 17 -79 8 -79 -14 0 -32 -17 -11 -69 88 -30 56 -84 151 -119
211 -123 212 -191 372 -214 506 -11 64 -10 73 6 102 11 17 31 55 46 85 15 29
31 50 35 45 5 -4 5 1 2 11 -4 9 -2 17 3 17 6 0 10 11 10 25 0 14 5 25 11 25 7
0 9 10 5 26 -4 14 -3 23 2 20 5 -3 7 5 5 17 -5 27 19 99 35 105 7 2 12 -1 12
-7 0 -6 -5 -11 -11 -11 -5 0 -7 -4 -4 -10 3 -5 1 -10 -4 -10 -6 0 -11 -10 -11
-22 0 -19 2 -20 10 -8 8 13 10 12 10 -3 0 -10 4 -16 9 -13 5 3 10 32 13 63 2
34 12 70 24 88 l19 29 6 -149 c4 -83 12 -186 19 -230z m-2530 297 c11 -13 18
-28 14 -33 -3 -5 -1 -9 4 -9 10 0 12 -17 12 -73 -1 -21 3 -36 8 -33 5 3 15
-16 22 -42 6 -26 38 -101 71 -168 32 -66 59 -125 59 -131 0 -6 -8 -32 -19 -59
-10 -27 -28 -76 -41 -109 -19 -52 -128 -311 -180 -430 -10 -22 -23 -56 -30
-76 -19 -54 -37 -76 -52 -61 -16 16 -49 15 -75 -3 -12 -8 -33 -49 -49 -92 -24
-67 -29 -93 -29 -181 l0 -104 -29 63 c-16 35 -30 77 -30 95 -1 18 -4 30 -8 27
-5 -2 -8 33 -8 79 0 100 27 211 76 323 126 281 192 482 214 656 5 46 10 162
10 259 l1 175 20 -25 c10 -14 28 -36 39 -48z m4799 -158 c34 -43 26 -86 -20
-109 -15 -8 -35 -15 -44 -15 -27 0 -55 38 -55 75 0 70 77 102 119 49z m-4101
-99 c8 -18 6 -40 -9 -94 -11 -39 -19 -86 -17 -104 4 -31 4 -31 31 28 36 76 63
105 99 105 39 0 44 -20 23 -91 -10 -32 -16 -62 -13 -65 4 -3 20 15 37 39 32
47 47 57 86 57 35 0 38 -15 16 -76 -12 -30 -21 -59 -21 -64 0 -19 16 -10 33
20 42 71 127 75 127 6 0 -19 -4 -46 -10 -60 -8 -22 -3 -38 30 -101 48 -90 51
-134 15 -170 -47 -48 -186 -27 -353 52 -95 45 -166 112 -182 173 -25 94 -1
287 45 356 18 27 48 22 63 -11z m4170 -102 c16 -21 84 -118 152 -217 l123
-178 -30 -29 -29 -30 -55 78 c-31 43 -101 142 -157 221 -56 78 -102 147 -102
152 0 9 47 39 62 40 3 0 19 -17 36 -37z m-3468 -203 c0 -34 -39 -100 -66 -112
-19 -9 -39 -9 -82 0 -65 13 -102 46 -102 91 l0 28 78 -5 c42 -2 93 0 112 6 52
15 60 14 60 -8z m487 -39 c49 -23 124 -90 154 -137 l20 -33 -43 -83 -43 -83
-6 61 c-3 33 -9 66 -13 72 -11 18 -44 14 -49 -5 -2 -10 -1 -188 1 -395 l5
-377 -43 -48 c-152 -166 -274 -243 -402 -253 l-78 -5 0 466 0 467 33 25 c54
42 90 79 151 154 90 113 130 151 177 173 55 24 83 25 136 1z m-1297 -156 c21
-22 26 -45 11 -45 -5 0 -32 -15 -60 -34 -36 -25 -48 -29 -41 -16 6 11 7 28 1
42 -9 24 -8 41 4 71 4 9 3 17 -2 17 -10 0 -33 -49 -99 -205 -21 -49 -57 -134
-81 -187 -24 -55 -40 -105 -37 -115 5 -15 4 -16 -5 -3 -7 10 -11 11 -11 3 0
-7 -11 -29 -25 -49 -46 -67 -79 -144 -67 -156 16 -16 65 19 153 109 101 103
142 168 180 283 25 73 41 104 69 133 21 20 45 37 54 37 24 0 19 -33 -9 -60
-14 -13 -34 -51 -44 -84 -58 -186 -111 -258 -322 -440 -42 -36 -91 -86 -108
-112 -38 -58 -46 -45 -38 59 6 88 24 133 169 447 129 278 163 341 208 388 l33
32 23 -47 c14 -26 33 -57 44 -68z m3649 59 c21 -15 22 -18 7 -26 -19 -11 -46
6 -46 28 0 18 10 18 39 -2z m-2824 -40 c-1 -14 -8 -31 -15 -37 -10 -10 -11 -8
-3 7 6 10 8 27 6 37 -3 11 -1 19 5 19 6 0 9 -12 7 -26z m-144 -21 c43 17 49 0
47 -122 l-3 -104 -27 -1 c-24 -1 -30 5 -48 47 -18 41 -20 59 -14 101 5 28 8
60 7 71 -1 11 0 15 3 9 4 -9 13 -9 35 -1z m140 -77 c-16 -18 -16 -18 -19 3 -2
12 2 29 9 38 12 13 14 13 20 -4 4 -11 0 -25 -10 -37z m3822 13 c30 -16 37 -28
37 -66 0 -36 -38 -73 -75 -73 -66 0 -92 83 -41 127 30 26 47 28 79 12z m-4475
-44 c19 -24 40 -36 27 -15 -7 12 -3 12 20 4 13 -6 14 -9 3 -16 -9 -7 -3 -8 17
-4 22 5 26 4 15 -4 -12 -8 -11 -10 8 -10 14 0 21 -4 16 -11 -4 -7 1 -7 16 1
15 8 25 9 29 2 4 -6 54 -12 118 -14 61 -2 109 -6 106 -10 -2 -5 -9 -8 -14 -8
-6 0 -17 -7 -25 -15 -9 -8 -23 -15 -32 -14 -14 0 -13 2 3 9 16 7 17 9 3 9 -9
1 -20 -4 -23 -9 -8 -13 -104 -6 -131 8 -11 6 -37 15 -59 22 -65 19 -166 100
-126 100 5 0 18 -11 29 -25z m4370 -142 c15 -9 29 -18 31 -19 6 -5 -259 -457
-347 -592 -10 -15 -38 -7 -46 14 -3 9 1 30 10 47 37 72 316 567 320 567 3 0
17 -8 32 -17z m-1492 -60 c4 -19 4 -37 1 -40 -3 -3 0 -12 8 -20 34 -33 9 -88
-37 -81 -21 3 -23 7 -21 63 2 33 5 80 9 105 5 41 7 43 20 26 7 -11 17 -35 20
-53z m323 -32 c-1 -36 -7 -81 -14 -100 -7 -20 -27 -110 -44 -201 -18 -91 -34
-175 -37 -187 -3 -16 -12 -23 -29 -23 -13 0 -26 4 -29 8 -3 5 15 105 39 222
25 117 42 217 39 222 -3 5 1 20 10 33 9 13 16 29 16 35 0 6 7 27 15 48 22 50
35 27 34 -57z m-2645 -628 c-1 -200 -4 -366 -6 -369 -3 -2 -28 -7 -57 -11
l-51 -6 0 92 c0 89 0 91 24 91 17 0 25 7 28 24 6 28 -8 46 -34 46 -17 0 -18
12 -18 145 0 137 1 145 19 145 11 0 23 9 27 22 5 17 0 27 -20 43 -24 19 -26
26 -20 63 4 25 11 39 17 35 6 -3 7 -1 3 6 -4 6 0 37 10 69 23 79 34 129 41
187 2 28 10 53 16 57 17 10 23 -194 21 -639z m2746 555 c0 -13 -18 -115 -40
-228 -22 -112 -40 -206 -40 -207 0 -5 -46 -3 -51 2 -3 2 14 105 38 227 23 123
43 224 43 226 0 1 11 2 25 2 19 0 25 -5 25 -22z m724 -474 c12 -30 6 -82 -11
-102 -46 -51 -113 -28 -113 39 0 34 5 42 33 59 39 24 83 26 91 4z m-777 -74
c1 -25 5 -70 9 -102 11 -102 21 -98 -260 -98 -133 0 -245 3 -248 6 -4 3 0 21
8 39 22 53 18 107 -11 149 -14 21 -23 42 -19 47 3 6 108 8 262 7 l257 -3 2
-45z m894 -143 c21 -60 39 -113 39 -118 0 -5 -63 -9 -145 -9 -94 0 -145 4
-145 10 0 6 8 37 17 69 l17 58 58 12 c61 12 92 39 105 90 4 17 8 20 11 11 2
-8 22 -64 43 -123z m-1431 38 c0 -78 -8 -90 -34 -53 -29 40 -15 128 19 128 12
0 15 -16 15 -75z m-2351 -114 l1 -134 -35 6 c-20 3 -54 20 -75 37 -53 42 -54
76 -2 121 56 49 92 99 93 128 l1 26 8 -25 c4 -14 8 -85 9 -159z m-549 -86
c400 -90 516 -127 603 -193 52 -40 48 -56 -5 -24 -54 32 -168 69 -376 121
-224 56 -278 65 -287 51 -8 -12 -16 -10 170 -54 256 -62 419 -108 438 -124 24
-21 21 -36 -5 -28 -13 4 -120 31 -238 62 -824 211 -779 199 -763 215 6 6 37 3
92 -10 95 -22 108 -7 18 22 -42 14 -57 23 -57 37 0 17 3 17 63 4 34 -8 190
-44 347 -79z m1775 85 c8 -13 -32 -37 -87 -51 -27 -6 -48 -15 -48 -20 0 -14
29 -11 105 10 66 19 85 19 85 2 0 -11 -48 -26 -240 -75 -493 -126 -622 -160
-693 -182 -43 -13 -83 -24 -89 -24 -26 0 38 50 81 64 42 14 524 136 536 136 3
0 5 7 5 15 0 18 13 20 -116 -10 -286 -65 -456 -117 -542 -166 -58 -33 -80 -32
-41 1 86 73 237 127 574 205 138 31 288 67 335 80 97 26 126 29 135 15z m-417
-16 c63 -8 67 -19 10 -28 -24 -4 -97 -19 -163 -35 -66 -16 -123 -27 -127 -25
-3 2 -4 14 -1 25 12 45 157 77 281 63z m-1158 -15 c46 -11 90 -42 90 -66 0
-18 -21 -16 -99 6 -36 11 -101 27 -145 36 -52 12 -74 20 -65 26 19 12 164 11
219 -2z m3224 -36 c3 -10 4 -49 2 -87 -3 -102 8 -99 -295 -94 l-254 4 -23 28
c-29 33 -33 109 -8 144 15 22 17 22 294 22 257 0 279 -1 284 -17z m-1519 -63
c0 -9 -18 -19 -50 -26 -63 -15 -404 -103 -555 -144 -223 -60 -496 -132 -558
-147 -68 -16 -96 -12 -332 50 -169 45 -454 118 -495 127 -79 18 -391 99 -429
112 -45 15 -60 38 -24 38 13 0 57 -9 98 -21 173 -46 393 -103 500 -129 152
-37 364 -92 474 -124 93 -27 185 -33 233 -15 47 18 474 134 773 210 85 21 191
50 235 63 89 27 130 29 130 6z m2729 4 c12 -5 16 -20 16 -60 l0 -54 -505 0
-505 0 0 53 c0 30 3 57 7 60 8 9 966 9 987 1z m-4898 -189 c27 -8 138 -36 246
-64 189 -47 200 -51 260 -97 139 -107 357 -312 358 -337 0 -4 -59 -69 -132
-145 -96 -100 -148 -146 -194 -171 l-63 -35 -103 69 c-57 37 -151 108 -209
156 -101 84 -139 103 -155 78 -7 -12 104 -129 167 -176 21 -15 39 -32 39 -37
0 -5 -28 -6 -63 -4 -203 17 -367 235 -367 488 0 41 5 93 11 115 19 69 104 175
140 175 8 0 38 -7 65 -15z m1947 -15 c41 -36 92 -129 107 -195 14 -59 0 -161
-37 -269 -59 -177 -185 -286 -330 -286 l-43 0 70 67 c99 93 137 142 119 154
-8 5 -19 9 -25 9 -7 0 -63 -44 -125 -98 -167 -143 -619 -466 -771 -551 -55
-31 -58 -32 -87 -16 -28 14 -95 93 -119 140 -22 44 -52 151 -52 187 0 57 52
120 277 335 193 186 257 243 395 351 87 67 105 74 373 146 72 20 144 40 160
45 46 14 52 13 88 -19z m-2805 4 c20 -14 22 -23 22 -115 0 -98 0 -100 -26
-109 -16 -6 -447 -10 -1159 -10 -1017 0 -1135 2 -1149 16 -12 12 -16 38 -16
113 0 92 1 99 23 109 15 7 361 11 1152 11 1008 1 1133 -1 1153 -15z m6082 -4
c5 -8 10 -56 10 -107 0 -70 -4 -95 -16 -107 -14 -14 -138 -16 -1219 -16
l-1204 0 -15 22 c-11 16 -16 46 -16 105 0 139 -156 124 1245 121 1059 -3 1207
-5 1215 -18z m-4230 -50 c11 -7 1 -10 -35 -10 -27 0 -57 5 -65 10 -11 7 -1 10
35 10 28 0 57 -5 65 -10z m-1269 -91 c-11 -24 -23 -61 -26 -81 -4 -21 -11 -38
-15 -38 -15 0 -111 -93 -125 -121 -8 -15 -15 -43 -15 -61 -1 -32 -1 -32 -16
-13 -33 43 8 130 83 176 44 26 50 35 80 108 23 53 42 85 50 78 2 -2 -5 -24
-16 -48z m2398 13 c11 -21 23 -55 26 -76 6 -28 16 -43 45 -61 54 -34 90 -81
90 -118 0 -52 -16 -65 -24 -19 -7 44 -42 93 -86 118 -23 14 -30 28 -40 78 -7
33 -18 73 -26 88 -8 16 -12 28 -9 28 2 0 13 -17 24 -38z m1233 -257 l3 -70
155 -8 c85 -4 191 -9 235 -10 l80 -4 6 -49 c6 -51 6 -52 13 41 1 19 8 20 146
20 l145 0 3 -78 3 -77 -237 1 c-236 2 -238 2 -256 -21 -18 -22 -18 -55 -18
-679 l1 -656 -155 -3 -156 -3 0 719 c0 712 6 970 21 955 4 -4 9 -39 11 -78z
m-5085 -69 c1 -1 3 -343 4 -761 l1 -760 -118 0 -119 0 -5 661 c-4 540 -8 664
-19 677 -12 15 -48 17 -327 17 -302 0 -315 -1 -334 -20 -20 -20 -21 -30 -20
-678 l1 -657 -113 0 -113 0 0 755 c-1 415 1 760 3 766 2 8 166 10 580 6 317
-2 578 -5 579 -6z m6552 -22 c3 -2 5 -340 6 -749 l0 -745 -132 0 c-100 0 -133
3 -133 13 0 6 -5 4 -11 -6 -9 -15 -28 -17 -174 -17 l-165 0 0 645 0 646 158
-3 157 -3 7 -110 c3 -60 8 -329 11 -598 2 -268 7 -490 10 -494 4 -3 7 71 7
165 0 95 4 172 8 172 4 0 9 21 10 47 1 27 6 49 12 51 14 5 13 82 -1 82 -8 0
-10 108 -8 366 3 349 2 367 -16 380 -14 11 -60 14 -187 14 l-168 0 0 82 0 81
302 -7 c166 -4 304 -9 307 -12z m-5328 -45 c28 -29 49 -60 49 -72 0 -57 23
-103 75 -152 l53 -50 -378 0 c-208 0 -381 3 -384 6 -4 4 8 24 26 45 105 125
281 237 413 264 83 16 95 13 146 -41z m2932 30 c34 -11 93 -39 131 -61 74 -43
200 -157 228 -206 l18 -30 -43 -5 c-23 -3 -174 -6 -336 -6 l-294 -1 66 62 c64
62 65 64 72 128 6 51 14 72 39 102 17 21 37 38 44 38 7 0 41 -9 75 -21z
m-4460 -844 l2 -640 -144 0 -143 0 1 630 c1 347 1 636 1 643 0 10 32 12 140
10 l140 -3 3 -640z m6177 0 l0 -645 -137 0 c-138 0 -160 4 -157 28 1 6 2 293
3 637 l1 625 145 0 145 0 0 -645z m-3762 470 c21 -16 20 -17 -86 -123 -85 -84
-114 -119 -133 -165 l-24 -57 -687 2 -686 3 -38 30 c-116 95 -93 262 43 310
31 12 183 14 813 15 682 0 778 -2 798 -15z m2514 -13 c55 -34 83 -85 82 -152
0 -66 -21 -109 -71 -147 l-36 -28 -543 -3 -543 -2 -7 27 c-20 84 -108 198
-207 270 -29 20 -54 38 -57 40 -24 19 95 23 685 21 l660 -3 37 -23z m-1740
-250 c-47 -59 -79 -85 -96 -79 -30 12 -16 35 52 85 73 55 90 53 44 -6z m-1027
-179 c19 -88 31 -117 68 -159 42 -48 94 -79 167 -100 37 -11 -114 -13 -898
-11 -827 2 -944 0 -952 -13 -5 -8 -10 -99 -10 -202 l0 -188 -80 0 -80 0 0 350
0 350 890 0 890 0 5 -27z m3135 -323 l0 -350 -60 0 -60 0 0 183 c0 131 -4 188
-12 200 -12 16 -103 17 -1338 18 -1093 1 -1319 3 -1290 14 57 20 141 65 193
101 26 19 50 34 54 34 3 0 16 8 27 18 20 16 20 16 6 -2 -14 -18 -13 -19 4 -13
10 4 25 2 32 -4 9 -7 59 -10 152 -7 115 3 142 6 156 21 21 20 23 21 32 5 4 -6
3 -8 -4 -4 -6 3 -13 2 -17 -3 -3 -6 4 -8 15 -6 13 2 52 -14 98 -42 111 -65
166 -85 242 -85 83 0 147 28 210 91 44 44 80 117 80 163 0 17 31 18 740 18
l740 0 0 -350z m-5843 128 c-2 -24 -4 -5 -4 42 0 47 2 66 4 43 2 -24 2 -62 0
-85z m1300 -240 c-3 -7 -5 -2 -5 12 0 14 2 19 5 13 2 -7 2 -19 0 -25z m2486 5
c-13 -2 -33 -2 -45 0 -13 2 -3 4 22 4 25 0 35 -2 23 -4z m1628 -30 c5 -5 9
-52 7 -109 l-3 -99 -2012 -3 -2013 -2 0 112 0 113 2005 -1 c1318 -1 2009 -4
2016 -11z m-5394 -165 c-3 -7 -5 -2 -5 12 0 14 2 19 5 13 2 -7 2 -19 0 -25z
m5561 -35 c-10 -2 -28 -2 -40 0 -13 2 -5 4 17 4 22 1 32 -1 23 -4z"/>
<path d="M6167 6935 c3 -8 9 -12 14 -9 12 7 11 11 -5 17 -10 4 -13 1 -9 -8z"/>
<path d="M4230 6660 c0 -5 5 -10 11 -10 5 0 7 5 4 10 -3 6 -8 10 -11 10 -2 0
-4 -4 -4 -10z"/>
<path d="M4200 6616 c0 -2 8 -10 18 -17 15 -13 16 -12 3 4 -13 16 -21 21 -21
13z"/>
<path d="M4206 6577 c3 -10 9 -15 12 -12 3 3 0 11 -7 18 -10 9 -11 8 -5 -6z"/>
<path d="M4051 6204 c0 -11 3 -14 6 -6 3 7 2 16 -1 19 -3 4 -6 -2 -5 -13z"/>
<path d="M4031 5854 c0 -11 3 -14 6 -6 3 7 2 16 -1 19 -3 4 -6 -2 -5 -13z"/>
<path d="M4652 6012 c-51 -19 -80 -37 -71 -46 2 -2 36 3 74 11 47 10 95 13
148 9 80 -7 97 2 50 24 -48 22 -142 23 -201 2z"/>
<path d="M4660 5791 c-58 -18 -117 -57 -176 -117 -44 -44 -71 -64 -88 -64 -35
0 -39 -13 -15 -44 31 -40 62 -34 123 24 29 28 55 50 58 50 3 0 -5 -26 -18 -57
-40 -98 -29 -201 31 -279 99 -130 319 -116 387 25 41 85 31 251 -18 291 -27
23 -14 31 15 11 36 -26 51 -27 51 -2 0 37 -63 105 -129 138 -53 28 -73 33
-129 32 -37 0 -78 -4 -92 -8z"/>
<path d="M5705 5775 c-84 -44 -155 -125 -141 -161 5 -12 13 -10 41 12 41 31
42 28 13 -29 -25 -50 -35 -163 -19 -222 25 -93 114 -158 216 -159 94 -1 177
52 221 140 28 57 26 174 -3 233 -12 25 -21 46 -19 48 1 2 29 -19 60 -47 62
-54 63 -55 100 -40 35 13 34 45 -1 64 -16 8 -54 38 -85 68 -89 85 -146 111
-248 115 -76 3 -90 1 -135 -22z"/>
<path d="M5018 4143 c7 -3 16 -2 19 1 4 3 -2 6 -13 5 -11 0 -14 -3 -6 -6z"/>
<path d="M8178 2305 c2 -14 6 -25 8 -25 2 0 4 11 4 25 0 14 -4 25 -9 25 -4 0
-6 -11 -3 -25z"/>
<path d="M8180 2261 c0 -5 -3 -16 -6 -25 -3 -9 -2 -16 3 -16 5 0 10 11 11 25
1 14 0 25 -3 25 -3 0 -5 -4 -5 -9z"/>
<path d="M8079 2227 c5 -5 26 -7 47 -5 l39 3 -47 5 c-26 3 -43 1 -39 -3z"/>
<path d="M2512 5115 c-148 -33 -274 -129 -328 -249 -22 -48 -38 -69 -63 -82
-42 -23 -105 -101 -121 -150 -15 -44 -8 -121 13 -141 14 -14 11 -22 -28 -75
-67 -90 -101 -154 -137 -258 -31 -91 -33 -102 -33 -245 0 -130 3 -160 23 -225
34 -105 82 -196 150 -282 46 -57 131 -139 160 -154 1 0 -19 -45 -44 -98 -57
-121 -64 -161 -34 -198 18 -24 29 -28 72 -28 46 0 54 4 86 38 20 20 55 67 79
105 26 40 51 67 61 67 9 0 42 -7 72 -15 117 -32 288 -28 425 10 16 5 29 -7 63
-54 24 -33 64 -80 89 -105 38 -39 51 -46 83 -46 23 0 48 8 64 21 39 30 34 74
-20 196 l-46 103 43 37 c161 137 257 305 289 506 15 91 8 222 -16 317 -23 91
-94 234 -152 305 l-49 60 20 28 c26 34 27 109 3 155 -19 36 -111 129 -135 137
-9 3 -24 27 -34 54 -22 64 -93 149 -161 194 -110 73 -266 102 -394 72z m233
-60 c33 -9 80 -29 105 -45 63 -41 160 -145 160 -172 0 -22 -41 -4 -60 26 -11
19 -45 57 -74 84 -71 64 -139 87 -262 87 -85 0 -95 -2 -170 -40 -63 -32 -88
-52 -127 -100 -26 -33 -56 -61 -67 -63 -23 -4 -24 1 -9 31 85 161 304 244 504
192z m-10 -60 c73 -19 125 -54 159 -106 32 -47 32 -49 4 -49 -39 -1 -112 -43
-135 -79 l-22 -33 -122 0 -121 0 -16 31 c-18 39 -87 81 -131 81 l-32 0 33 46
c74 104 231 148 383 109z m-340 -229 c44 -29 32 -49 -47 -81 -40 -15 -116 -54
-169 -86 -54 -33 -100 -59 -103 -59 -18 0 -27 43 -16 76 41 125 239 213 335
150z m652 -15 c83 -41 148 -123 141 -174 -5 -32 -38 -25 -127 28 -42 25 -112
59 -156 76 -44 17 -83 34 -87 38 -11 10 20 51 46 62 37 16 120 2 183 -30z
m-251 -111 c68 -18 195 -76 258 -119 103 -69 223 -232 271 -364 138 -378 -79
-814 -462 -933 -65 -20 -101 -24 -213 -26 -74 0 -157 4 -185 11 -65 15 -219
77 -268 108 -121 77 -229 221 -283 378 -25 71 -27 94 -28 215 0 116 3 146 25
216 49 157 159 313 281 395 199 136 391 173 604 119z m-561 -1432 c14 -6 25
-14 26 -17 0 -3 3 -17 5 -31 5 -26 -68 -145 -96 -155 -9 -4 -7 2 7 17 19 22
68 108 60 108 -2 0 -18 -21 -35 -47 -54 -84 -92 -112 -92 -68 0 13 90 205 96
205 2 0 15 -5 29 -12z m850 -88 c50 -99 56 -130 26 -130 -26 0 -151 149 -151
179 0 11 47 40 67 41 7 0 33 -40 58 -90z"/>
<path d="M2535 4593 c-201 -44 -269 -78 -381 -188 -99 -98 -146 -178 -179
-310 -51 -201 -20 -386 90 -541 203 -284 562 -373 875 -217 104 52 233 181
284 284 134 274 90 566 -119 774 -93 93 -199 153 -329 185 -73 18 -189 25
-241 13z m245 -54 c130 -36 214 -82 300 -168 129 -128 181 -252 181 -426 0
-110 -9 -162 -46 -260 -66 -177 -222 -315 -417 -372 -146 -42 -311 -24 -463
52 -166 81 -294 241 -335 415 -18 76 -16 232 4 309 25 97 92 217 161 287 148
151 409 220 615 163z"/>
<path d="M2628 4440 c3 -35 8 -50 18 -50 10 0 14 14 14 50 0 41 -3 50 -17 50
-15 0 -17 -8 -15 -50z"/>
<path d="M2306 4401 c-8 -12 20 -71 34 -71 20 0 18 19 -4 49 -14 18 -27 28
-30 22z"/>
<path d="M2911 4374 c-22 -28 -27 -44 -13 -44 11 0 37 30 45 53 9 26 -9 21
-32 -9z"/>
<path d="M2152 4183 c2 -10 13 -19 26 -21 24 -4 29 7 10 26 -18 18 -40 15 -36
-5z"/>
<path d="M3062 4187 c-12 -7 -19 -16 -16 -20 8 -7 44 -10 44 -3 0 2 3 11 6 20
7 19 -3 20 -34 3z"/>
<path d="M3005 4045 c-5 -2 -73 -20 -149 -40 -132 -36 -141 -37 -167 -21 -85
50 -175 -37 -106 -102 30 -28 68 -28 104 1 20 16 76 34 188 61 88 20 166 43
173 50 11 11 11 18 3 35 -11 20 -23 24 -46 16z"/>
<path d="M2057 3953 c-4 -3 -7 -13 -7 -21 0 -12 3 -12 15 -2 16 13 45 7 45 -9
0 -5 -13 -12 -30 -16 -43 -9 -37 -25 10 -25 36 0 40 3 40 24 0 41 -11 56 -39
56 -15 0 -31 -3 -34 -7z"/>
<path d="M3120 3939 c0 -19 4 -21 34 -15 20 4 37 2 41 -4 4 -6 -9 -10 -34 -10
-30 0 -41 -4 -41 -16 0 -12 9 -14 43 -12 41 3 42 4 42 38 0 34 -1 35 -42 38
-38 3 -43 1 -43 -19z"/>
<path d="M2162 3674 c-27 -19 -28 -34 -2 -34 20 0 46 35 32 44 -5 3 -18 -2
-30 -10z"/>
<path d="M3057 3684 c-10 -10 12 -44 27 -44 8 0 16 6 19 14 9 23 -28 48 -46
30z"/>
<path d="M2338 3513 c-19 -21 -24 -53 -8 -53 13 0 32 38 28 57 -3 13 -6 12
-20 -4z"/>
<path d="M2880 3524 c0 -15 36 -64 47 -64 18 0 16 21 -3 48 -14 20 -44 31 -44
16z"/>
<path d="M2580 3415 c0 -24 6 -37 19 -45 40 -21 51 -13 51 35 0 33 -4 45 -15
45 -11 0 -15 -11 -15 -36 0 -21 -4 -33 -10 -29 -5 3 -10 19 -10 36 0 16 -4 29
-10 29 -5 0 -10 -16 -10 -35z"/>
</g>
</svg>
